<?xml version="1.0" standalone="no"?>
<!DOCTYPE svg PUBLIC "-//W3C//DTD SVG 20010904//EN"
 "http://www.w3.org/TR/2001/REC-SVG-20010904/DTD/svg10.dtd">
<svg version="1.0" xmlns="http://www.w3.org/2000/svg"
 width="439.000000pt" height="439.000000pt" viewBox="0 0 439.000000 439.000000"
 preserveAspectRatio="xMidYMid meet">
<metadata>
Created by potrace 1.14, written by Peter Selinger 2001-2017
</metadata>
<g transform="translate(0.000000,439.000000) scale(0.100000,-0.100000)"
fill="#000000" stroke="none">
<path d="M1053 4280 c-14 -6 -26 -23 -32 -47 -16 -58 -31 -222 -25 -273 2 -25
9 -139 14 -255 10 -212 23 -351 40 -415 5 -19 12 -78 15 -131 3 -52 12 -120
21 -150 26 -94 27 -98 10 -124 -20 -30 -20 -51 -2 -58 8 -3 16 -16 18 -29 2
-15 10 -23 23 -23 13 0 19 -5 16 -15 -1 -8 -5 -35 -6 -60 -2 -25 -11 -63 -19
-85 -8 -22 -15 -56 -16 -75 0 -19 -9 -69 -19 -110 -14 -56 -18 -97 -14 -160 9
-177 7 -244 -12 -300 -23 -69 -125 -282 -160 -335 -15 -21 -43 -75 -62 -120
-19 -44 -45 -89 -57 -101 -13 -11 -61 -36 -107 -54 -80 -33 -171 -92 -214
-140 -11 -12 -45 -38 -75 -58 -30 -19 -99 -77 -152 -127 -54 -51 -119 -107
-145 -124 -27 -16 -58 -37 -70 -46 l-23 -16 0 -424 0 -425 1399 0 1398 0 -14
58 c-8 31 -20 76 -27 100 -12 37 -12 48 0 70 8 15 14 44 14 64 0 20 5 40 11
43 6 4 8 14 5 22 -6 15 15 43 33 43 18 0 13 28 -14 76 -19 34 -21 44 -10 44
17 0 20 16 5 25 -17 10 -11 25 10 25 24 0 24 0 6 47 -35 91 -37 134 -10 229
16 56 25 113 25 156 -1 37 4 70 9 73 6 3 10 19 10 35 0 30 33 70 57 70 17 0
17 21 -2 56 -13 25 -13 29 0 37 20 11 19 36 -5 91 -18 44 -19 46 -1 56 10 5
22 6 25 2 7 -6 1 31 -10 66 -8 27 8 72 27 72 12 0 19 7 19 20 0 11 4 20 10 20
6 0 6 9 0 26 -13 33 -13 34 5 34 21 0 19 12 -10 67 -14 26 -22 49 -17 51 6 2
8 11 5 21 -4 16 5 19 71 25 42 4 94 13 115 21 55 19 145 78 190 124 21 21 59
48 85 59 38 18 50 29 67 69 27 62 58 180 59 219 0 18 7 45 15 60 8 16 15 46
15 66 0 31 -6 42 -41 70 -23 18 -58 47 -78 63 -41 35 -222 145 -238 145 -14 0
-200 83 -245 110 -62 36 -88 112 -69 201 8 36 8 56 1 63 -5 5 -10 21 -10 34 0
13 -13 40 -30 59 -27 30 -30 41 -30 100 0 62 14 126 46 214 32 88 47 224 47
429 1 184 -1 210 -19 245 -44 92 -119 45 -300 -190 -145 -187 -244 -331 -268
-389 l-14 -33 -128 -8 c-347 -21 -424 -10 -456 64 -11 27 -27 45 -45 52 -36
13 -66 41 -117 109 -59 80 -77 107 -118 180 -20 36 -62 97 -95 137 -125 153
-230 215 -310 183z m2157 -1860 c0 -23 3 -28 16 -23 11 4 15 2 13 -6 -3 -7 -9
-11 -14 -10 -48 11 -53 17 -39 53 10 26 24 18 24 -14z m-40 -70 c0 -5 -2 -10
-4 -10 -3 0 -8 5 -11 10 -3 6 -1 10 4 10 6 0 11 -4 11 -10z m-730 -475 c0 -8
-2 -15 -4 -15 -2 0 -6 7 -10 15 -3 8 -1 15 4 15 6 0 10 -7 10 -15z"/>
</g>
</svg>
